<svg xmlns="http://www.w3.org/2000/svg" viewBox="0 0 16 16">
  <path fill="#fff" d="M8 0C5.829 0 5.556.01 4.703.048 3.85.088 3.269.222 2.76.42a3.92 3.92 0 0 0-1.417.923A3.92 3.92 0 0 0 .42 2.76C.222 3.268.087 3.85.048 4.7.01 5.555 0 5.827 0 8s.01 2.444.048 3.297c.04.852.174 1.433.372 1.942.205.526.478.972.923 1.417a3.92 3.92 0 0 0 1.416.923c.51.198 1.09.333 1.942.372C5.555 15.99 5.827 16 8 16s2.444-.01 3.298-.048c.851-.04 1.434-.174 1.943-.372a3.92 3.92 0 0 0 1.416-.923 3.92 3.92 0 0 0 .923-1.417c.198-.509.332-1.09.372-1.942C15.99 10.445 16 10.173 16 8s-.01-2.445-.048-3.299c-.04-.851-.174-1.433-.372-1.941a3.92 3.92 0 0 0-.923-1.417A3.92 3.92 0 0 0 13.24.42c-.51-.198-1.092-.333-1.943-.372C10.445.01 10.173 0 8 0Zm0 1.441c2.136 0 2.389.008 3.232.047.78.036 1.204.166 1.486.276.374.145.641.319.921.599.28.28.454.547.6.921.109.282.239.705.275 1.485.039.843.047 1.096.047 3.231s-.008 2.389-.047 3.232c-.036.78-.166 1.203-.276 1.485a2.48 2.48 0 0 1-.599.921c-.28.28-.547.453-.921.599-.282.11-.705.24-1.485.276-.843.038-1.096.047-3.233.047s-2.39-.009-3.233-.047c-.78-.036-1.203-.166-1.485-.276a2.478 2.478 0 0 1-.921-.599 2.48 2.48 0 0 1-.599-.921c-.11-.282-.24-.705-.276-1.485C1.45 10.389 1.441 10.136 1.441 8s.009-2.388.047-3.231c.036-.78.166-1.203.276-1.485.145-.374.319-.642.599-.921.28-.28.547-.454.921-.599.282-.11.705-.24 1.485-.276C5.611 1.449 5.864 1.441 8 1.441Zm0 2.45a4.109 4.109 0 1 0 0 8.218 4.109 4.109 0 0 0 0-8.218Zm0 6.776a2.667 2.667 0 1 1 0-5.334 2.667 2.667 0 0 1 0 5.334Zm5.23-6.938a.96.96 0 1 1-1.919 0 .96.96 0 0 1 1.919 0Z"/>
</svg>
